<?xml version="1.0" encoding="UTF-8" standalone="no"?>
<svg
   xmlns:dc="http://purl.org/dc/elements/1.1/"
   xmlns:cc="http://creativecommons.org/ns#"
   xmlns:rdf="http://www.w3.org/1999/02/22-rdf-syntax-ns#"
   xmlns:svg="http://www.w3.org/2000/svg"
   xmlns="http://www.w3.org/2000/svg"
   xmlns:sodipodi="http://sodipodi.sourceforge.net/DTD/sodipodi-0.dtd"
   xmlns:inkscape="http://www.inkscape.org/namespaces/inkscape"
   viewBox="0 0 36 36"
   version="1.1"
   id="svg4550"
   sodipodi:docname="boat0.svg"
   inkscape:version="0.92.4 (5da689c313, 2019-01-14)">
  <metadata
     id="metadata4556">
    <rdf:RDF>
      <cc:Work
         rdf:about="">
        <dc:format>image/svg+xml</dc:format>
        <dc:type
           rdf:resource="http://purl.org/dc/dcmitype/StillImage" />
      </cc:Work>
    </rdf:RDF>
  </metadata>
  <defs
     id="defs4554" />
  <sodipodi:namedview
     pagecolor="#ffffff"
     bordercolor="#666666"
     borderopacity="1"
     objecttolerance="10"
     gridtolerance="10"
     guidetolerance="10"
     inkscape:pageopacity="0"
     inkscape:pageshadow="2"
     inkscape:window-width="2560"
     inkscape:window-height="1017"
     id="namedview4552"
     showgrid="false"
     inkscape:zoom="23.555556"
     inkscape:cx="18"
     inkscape:cy="18"
     inkscape:window-x="-8"
     inkscape:window-y="-8"
     inkscape:window-maximized="1"
     inkscape:current-layer="svg4550" />
  <path
     fill="#A7A9AC"
     d="M20 26c0 .553-.447 1-1 1-.552 0-1-.447-1-1V1c0-.552.448-1 1-1 .553 0 1 .448 1 1v25z"
     id="path4538" />
  <path
     fill="#D1D3D4"
     d="M3 24h31v8H12c-6 0-9-8-9-8z"
     id="path4540" />
  <path
     fill="#FFAC33"
     d="M5 22s2-5 5-9 8-8 8-8-1 11-1 16v1s-3-1-6-1-6 1-6 1z"
     id="path4544" />
  <path
     fill="#F4900C"
     d="M20 2s6 6 9 11c2.771 4.618 4 9 4 9s-3-1-6-1-6 1-6 1v-1c0-9-1-19-1-19z"
     id="path4546" />
  <path
     fill="#E6E7E8"
     d="M2 24c-.552 0-1 .447-1 1s.448 1 1 1h33v-2H2z"
     id="path4548" />
</svg>
